<svg id="Objects" xmlns="http://www.w3.org/2000/svg" viewBox="0 0 279.57 149.18"><defs><style>.cls-1{fill:#009668;}.cls-2{fill:#d7d8dc;}</style></defs><title>satva</title><path class="cls-1" d="M94.1,142.33,113,103.87a4.76,4.76,0,0,1,4.3-2.67l40,0a4.78,4.78,0,0,1,4.27,2.63l18.74,36.88a6.59,6.59,0,0,1-2.05,8.34h0a6.58,6.58,0,0,1-9.67-2.34l-12.65-24.5-2.62,25,6.15,52.32a8.45,8.45,0,0,1-8.39,9.43h0a8.44,8.44,0,0,1-8.37-7.41l-5.16-41.87-5,41.88a8.45,8.45,0,0,1-8.38,7.44h0a8.44,8.44,0,0,1-8.39-9.39l5.9-52.26-2.8-24.94-13.09,25.74a6.53,6.53,0,0,1-8.57,2.95h0A6.51,6.51,0,0,1,94.1,142.33Z" transform="translate(-93.43 -59.82)"/><circle class="cls-1" cx="137.15" cy="77.39" r="17.57" transform="translate(-95.81 -55.44) rotate(-1.81)"/><path class="cls-1" d="M250.61,77.32A17.57,17.57,0,1,1,233,59.82,17.56,17.56,0,0,1,250.61,77.32Z" transform="translate(-93.43 -59.82)"/><path class="cls-1" d="M186.47,139.91l28-36.7a5.11,5.11,0,0,1,4.07-2H247.2a5.1,5.1,0,0,1,4,2l28.33,36.41a6,6,0,0,1-1.08,8.47h0a6,6,0,0,1-7.8-.39l-20-23,9,38.9h-12.5l1.25,39.08a5.94,5.94,0,0,1-5.91,6.14h0a6,6,0,0,1-5.95-5.38l-3.38-35.88-3.27,35.94A6,6,0,0,1,224,208.8h0a5.94,5.94,0,0,1-6-6.11l1.12-39.05H206.66l8.64-38.88-19.88,23.17a6,6,0,0,1-7.79.45h0A6,6,0,0,1,186.47,139.91Z" transform="translate(-93.43 -59.82)"/><path class="cls-2" d="M286.1,142.33,305,103.87a4.78,4.78,0,0,1,4.31-2.67l40,0a4.8,4.8,0,0,1,4.27,2.63l18.73,36.88a6.57,6.57,0,0,1-2,8.34h0a6.58,6.58,0,0,1-9.67-2.34l-12.65-24.5-2.62,25,6.14,52.32a8.44,8.44,0,0,1-8.38,9.43h0a8.44,8.44,0,0,1-8.37-7.41l-5.16-41.87-5,41.88a8.43,8.43,0,0,1-8.38,7.44h0a8.44,8.44,0,0,1-8.38-9.39l5.89-52.26-2.79-24.94-13.1,25.74a6.52,6.52,0,0,1-8.56,2.95h0A6.52,6.52,0,0,1,286.1,142.33Z" transform="translate(-93.43 -59.82)"/><circle class="cls-2" cx="329.16" cy="77.39" r="17.57" transform="translate(-95.71 -49.37) rotate(-1.81)"/></svg>