<svg xmlns="http://www.w3.org/2000/svg" viewBox="0 0 221.65 231.49"><defs><style>.cls-1,.cls-4{fill:#7f400d;}.cls-1{stroke:#7f400d;stroke-miterlimit:10;}.cls-2{fill:#33a043;}.cls-3{fill:#a9d045;opacity:0.75;}</style></defs><title>Asset 3</title><g id="Layer_2" data-name="Layer 2"><g id="Layer_1-2" data-name="Layer 1"><path class="cls-1" d="M18.07,208.58l-3.92,3.93q-2.4-2.36-4.35-2.36a2.73,2.73,0,0,0-1.67.46,1.36,1.36,0,0,0-.6,1.13,1.38,1.38,0,0,0,.39.94,7.13,7.13,0,0,0,1.9,1.17L12.14,215a13.7,13.7,0,0,1,5,3.68,7.69,7.69,0,0,1-1.08,10A9.47,9.47,0,0,1,9.49,231a10.54,10.54,0,0,1-8.83-4.3l3.89-4.26a9,9,0,0,0,2.62,2.1,5.78,5.78,0,0,0,2.66.8,3.17,3.17,0,0,0,2-.61,1.75,1.75,0,0,0,.76-1.4q0-1.46-2.77-2.85L7.69,219.4q-6.14-3.07-6.15-7.72a6.71,6.71,0,0,1,2.3-5.13,8.39,8.39,0,0,1,5.91-2.14,10.25,10.25,0,0,1,8.32,4.16Z"/><path class="cls-1" d="M51.48,204.69h5l.06,25H50.48v-2.12a11.46,11.46,0,0,1-3.65,2.55,10.43,10.43,0,0,1-4,.79,11.25,11.25,0,0,1-8.48-3.78,13.25,13.25,0,0,1-3.59-9.43,13.58,13.58,0,0,1,3.43-9.6,11,11,0,0,1,8.39-3.76,10.67,10.67,0,0,1,4.27.85c1.33.57,2.56,1.43,4.68,2.57Zm-7.64,5.5A6.41,6.41,0,0,0,39,212.28,7.49,7.49,0,0,0,37,217.62,7.57,7.57,0,0,0,39,223a6.41,6.41,0,0,0,4.88,2.1A6.53,6.53,0,0,0,48.85,223a7.59,7.59,0,0,0,2-5.45,7.38,7.38,0,0,0-2-5.34A6.61,6.61,0,0,0,43.84,210.19Z"/><path class="cls-1" d="M71.46,195.69h6l0,9h4v6h-4l0,20h-6l0-20h-3v-6h3Z"/><path class="cls-1" d="M90.31,204.69h6.41l6.42,15.07,6.33-14.07h6.16l-10.15,24H101Z"/><path class="cls-1" d="M143.48,204.69h6l.06,25h-7.06v-2.33a6.4,6.4,0,0,1-3.14,2.55,10.43,10.43,0,0,1-4,.79,11.25,11.25,0,0,1-8.48-3.78,13.25,13.25,0,0,1-3.59-9.43,13.58,13.58,0,0,1,3.43-9.6,11,11,0,0,1,8.39-3.76,10.67,10.67,0,0,1,4.27.85,23.11,23.11,0,0,1,4.17,2.57ZM136.35,210a6.41,6.41,0,0,0-4.88,2.09,7.49,7.49,0,0,0-1.93,5.33,7.57,7.57,0,0,0,2,5.38,6.41,6.41,0,0,0,4.88,2.1,6.53,6.53,0,0,0,4.95-2.09,7.59,7.59,0,0,0,2-5.45,7.38,7.38,0,0,0-2-5.34A6.61,6.61,0,0,0,136.35,210Z"/><path class="cls-2" d="M149.65,166.43c-29.2-.58-124,1-124,1s7-56.5,13-85.5c8.92-43.1,13.5-66,62-77,34.5-7,121-4.5,121-4.5s-9.31,60.57-13,81.5C202.65,115.93,199.65,167.43,149.65,166.43Z"/><path class="cls-3" d="M124.65,187.43c-29.2-.58-124,1-124,1s7-56.5,13-85.5c8.92-43.1,13.5-66,62-77,34.5-7,121-4.5,121-4.5s-9.31,60.57-13,81.5C177.65,136.93,174.65,188.43,124.65,187.43Z"/><path class="cls-4" d="M139,47.36a39.92,39.92,0,0,0-15.59-6,24.94,24.94,0,0,0-16.07,2.24A16.93,16.93,0,0,0,98,56.5a19.15,19.15,0,0,0,3.85,15.29q3.52,4.59,12.24,10.48l10.45,7q12.25,8.29,17.24,15.57,6.26,9.14,4.33,20.87-2.88,17.5-17.89,25-13.4,6.7-31.5,3.72a99.75,99.75,0,0,1-20.87-6.22A42.75,42.75,0,0,1,70,145.33c-.53-.32,3-3.32,5.07-4.41a8.77,8.77,0,0,1,8.26-.29q5.61,4.06,16.49,5.85,10.7,1.76,18.75-2.06a18.55,18.55,0,0,0,10.87-14.61q2.35-14.27-15.21-26.32l-10.59-7.24Q92,88.32,86.89,81.19a26.37,26.37,0,0,1-4.94-20.35,30.92,30.92,0,0,1,9.91-18.35,35.92,35.92,0,0,1,19.09-8.9,46.78,46.78,0,0,1,14.72.15A92.82,92.82,0,0,1,146,39.61q2.77,1.15,6,2.73c.55.21,1.34,3-4,5.79A8.7,8.7,0,0,1,139,47.36Z"/></g></g></svg>